<?xml version="1.0" encoding="utf-8"?>
<!-- Generator: Adobe Illustrator 16.0.0, SVG Export Plug-In . SVG Version: 6.00 Build 0)  -->
<!DOCTYPE svg PUBLIC "-//W3C//DTD SVG 1.1//EN" "http://www.w3.org/Graphics/SVG/1.1/DTD/svg11.dtd">
<svg version="1.1" xmlns="http://www.w3.org/2000/svg" xmlns:xlink="http://www.w3.org/1999/xlink" x="0px" y="0px"
	 width="1133.861px" height="1133.859px" viewBox="0 0 1133.861 1133.859" enable-background="new 0 0 1133.861 1133.859"
	 xml:space="preserve">
<g id="Layer_2_1_">
</g>
<g id="Layer_1">
	<rect x="0" y="0" fill="#2F8CBB" width="1133.861" height="1133.859"/>
	<g id="Layer_2">
	</g>
	<g id="Layer_4">
	</g>
	<g id="Layer_3">
		<g>
			<path fill="#FF8D15" d="M946.335,754.848c-15.516,0-27.929,12.414-27.929,27.93v224.203H397.851V782.778
				c0-15.516-12.413-27.93-27.928-27.93H145.331V126.459h773.075v79.906c0,15.516,12.413,27.928,27.929,27.928
				s27.928-12.412,27.928-27.928V98.142c0-15.515-12.412-27.928-27.928-27.928H117.403c-15.515,0-27.928,12.413-27.928,27.928
				v684.635c0,0.388,0,0.775,0,0.775c0,0.388,0,0.776,0,0.776c0,1.163,0.388,2.327,0.388,3.491l0,0
				c0.388,1.163,0.388,2.327,0.776,3.49c0,0.388,0.387,0.388,0.387,0.776c0.389,1.163,0.776,2.327,1.552,3.103l0,0
				c0.388,1.164,1.164,1.939,1.939,3.103c0,0.389,0.388,0.389,0.388,0.776c0.776,1.164,1.552,1.939,2.327,2.715l252.132,252.133
				c0.775,0.775,1.163,1.164,1.939,1.938c0.388,0.389,0.775,0.389,1.164,0.776c0.389,0.388,0.776,0.775,1.164,0.775
				c0.388,0.388,0.776,0.388,1.163,0.776c0.389,0.388,0.776,0.388,1.164,0.775s0.776,0.388,1.164,0.775
				c0.388,0,0.776,0.389,1.163,0.389c0.388,0,0.776,0.388,1.164,0.388c0.388,0,0.776,0.388,1.164,0.388
				c0.387,0,0.776,0.388,1.163,0.388c0.388,0,0.776,0.389,1.164,0.389c0.387,0,0.776,0,1.551,0.387c0.389,0,0.776,0,1.164,0
				c0.776,0,1.552,0,2.327,0h0.388h576.412c15.516,0,27.929-12.412,27.929-27.928V782.001
				C974.262,767.649,961.85,754.848,946.335,754.848z M185.285,811.093h156.709v156.71L185.285,811.093z"/>
			<path fill="#FF8D15" d="M722.132,278.513c0-15.515-12.413-27.928-27.929-27.928H225.626c-15.516,0-27.929,12.413-27.929,27.928
				v144.297c0,15.515,12.413,27.928,27.929,27.928h468.577c15.517,0,27.929-12.413,27.929-27.928V278.513L722.132,278.513z
				 M665.886,394.494H253.554v-88.052h412.333V394.494z"/>
			<path fill="#FF8D15" d="M694.203,502.717H225.626c-15.516,0-27.929,12.413-27.929,27.929v144.296
				c0,15.517,12.413,27.929,27.929,27.929h468.577c15.517,0,27.929-12.412,27.929-27.929V530.646
				C722.132,515.13,709.719,502.717,694.203,502.717z M665.886,646.626H253.554v-88.052h412.333V646.626z"/>
			<path fill="#FF8D15" d="M1038.265,258.732c-10.86-10.862-28.704-10.862-39.564,0L874.186,383.245l-52.365-52.366
				c-10.862-10.861-28.705-10.861-39.566,0c-10.86,10.861-10.86,28.704,0,39.565l72.149,72.148c5.43,5.431,12.8,8.146,19.782,8.146
				s14.352-2.715,19.782-8.146l144.297-144.297C1049.127,287.435,1049.127,269.593,1038.265,258.732z"/>
			<path fill="#FF8D15" d="M966.117,510.863c-10.86-10.861-28.704-10.861-39.564,0l-52.366,52.366l-52.365-52.366
				c-10.862-10.861-28.705-10.861-39.566,0c-10.86,10.861-10.86,28.704,0,39.566l52.366,52.365l-52.366,52.367
				c-10.86,10.86-10.86,28.704,0,39.564c5.432,5.431,12.801,8.146,19.783,8.146s14.352-2.715,19.783-8.146l52.365-52.365
				l52.366,52.365c5.43,5.431,12.801,8.146,19.782,8.146c6.982,0,14.352-2.715,19.782-8.146c10.862-10.86,10.862-28.704,0-39.564
				l-52.365-52.367l52.365-52.365C976.978,539.567,976.978,521.723,966.117,510.863z"/>
		</g>
	</g>
</g>
</svg>
